<svg fill="none" preserveAspectRatio="none" viewBox="0 0 218.749 224.045" xmlns="http://www.w3.org/2000/svg">
  <g clip-path="url(#clip0_1_16)" id="Group 5">
    <path d="M41.0117 0.353465C47.1561 -0.240471 59.9019 0.108528 66.4431 0.108528L113.657 0.151431L154.014 0.0718287C161.931 0.0534596 171.066 -0.264942 178.91 0.604531C196.324 2.53941 213.511 18.2205 217.001 35.3467C219.371 46.9376 218.649 61.5472 218.636 73.4076L218.63 121.829L218.612 159.198C218.593 167.647 218.887 176.085 217.797 184.486C215.079 205.512 199.459 219.565 179.228 223.667C170.564 224.267 157.498 223.973 148.619 223.973L95.2649 223.912L60.6409 223.93C44.9365 223.955 33.7313 225.375 20.1651 215.891C-2.7614 199.867 0.123168 179.281 0.11031 154.887L0.110908 103.723L0.121933 64.5353C0.120708 57.5305 -0.176243 45.8906 0.797321 39.3879C1.94049 32.126 4.76873 25.2437 9.05547 19.2737C17.1759 7.88483 27.5697 2.69859 41.0117 0.353465Z" fill="rgb(245,240,235)" id="Vector"></path>
    <path d="M111.581 104.182C96.2532 104.543 80.9327 105.088 65.6202 105.829C60.5271 106.056 45.127 107.88 41.575 105.113C40.7355 102.743 40.8666 103.955 41.3785 101.335C43.6299 98.8182 47.2266 98.3284 50.4259 98.659C63.5708 100.006 131.793 91.8746 139.38 94.6178C143.225 99.2529 133.006 106.588 129.368 111.762C114.802 132.477 110.197 170.39 77.5307 168.731C49.3708 165.694 45.8813 136.75 46.7483 115.308C70.6601 112.405 93.878 108.474 117.612 105.315C116.161 104.28 113.504 104.335 111.581 104.182Z" fill="#244738" id="Vector_2"></path>
    <path d="M111.581 104.182C115.757 103.753 118.99 103.184 123.135 104.041C121.874 105.051 119.278 105.174 117.612 105.315C116.161 104.28 113.504 104.335 111.581 104.182Z" fill="rgb(245,240,235)" id="Vector_3"></path>
    <path d="M115.885 112.528L117.692 112.43L117.82 113.122C108.293 130.003 99.3165 168.774 72.1173 158.689C69.2664 157.636 66.767 155.524 64.4598 153.57C56.1221 143.529 55.4785 134.779 55.0114 122.257C74.4165 118.926 96.4877 114.885 115.885 112.528Z" fill="rgb(245,240,235)" id="Vector_4"></path>
    <path d="M148.644 51.1993C183.239 49.7481 187.978 90.0071 164.264 109.344C142.392 127.174 130.764 152.291 163.008 168.658L160.027 168.645C139.961 168.474 133.495 157.422 134.31 138.44C137.83 118.498 152.458 110.25 164.662 95.8485C177.496 80.4735 167.956 55.9997 146.305 60.1389C135.522 62.1963 128.977 74.4423 123.111 82.935C119.461 82.935 115.959 83.1248 112.322 83.3085C122.658 68.6928 129.24 54.0955 148.644 51.1993Z" fill="#244738" id="Vector_5"></path>
  </g>
  <defs>
    <clipPath id="clip0_1_16">
      <rect fill="white" height="224.045" width="218.749"></rect>
    </clipPath>
  </defs>
</svg>