<svg width="1024" height="1024" viewBox="0 0 1024 1024" fill="none" xmlns="http://www.w3.org/2000/svg">
  <!-- iOS rounded corner background -->
  <rect width="1024" height="1024" rx="230.4" fill="#F7F4F2"/>

  <!-- Knight design with 5% padding -->
  <g transform="translate(51.2, 51.2) scale(3.657)">
    <g clipPath="url(#clip0_1_20)">
      <path d="M0.215744 0H237.216V252L0.215744 251.096V0Z" fill="#F7F4F2"/>
      <path d="M134.545 111.831C138.519 111.446 141.851 110.282 144.15 113.901C143.929 118.23 133.165 128.106 130.437 132.815C118.916 152.684 112.62 186.373 83.3003 186.116C74.7978 186.11 66.678 182.577 60.8801 176.362C49.9205 164.588 49.5562 148.704 49.9946 133.678C54.4993 132.693 63.9172 131.866 68.8278 131.284C86.4928 128.755 112.914 125.59 129.647 121.824C113.046 119.583 65.132 126.172 46.6869 124.028C45.4568 123.882 44.5181 121.934 44.0503 120.863C44.4777 118.677 45.5101 116.999 48.0462 116.828C56.4819 116.264 64.9409 116.013 73.3907 115.524L134.545 111.831Z" fill="#244738"/>
      <path d="M117.85 130.77C119.851 130.433 119.033 130.194 120.58 130.886C111.465 150.358 98.513 193.066 69.0366 171.599C60.0033 162.169 59.3053 152.96 58.9171 140.561C73.3877 139.716 102.267 133.403 117.85 130.77Z" fill="#F7F4F2"/>
      <path d="M151.351 67.6781C165.426 66.8882 177.151 73.4827 181.764 87.0024C191.741 116.264 159.708 127.574 149.464 148.925C141.541 165.433 152.051 179.283 167.201 185.639L153.015 185.608C140.728 178.799 136.968 170.331 137.556 156.719C139.698 137.75 155.36 127.488 167.267 113.95C181.052 98.2688 172.719 73.8133 150.215 76.6361C139.902 77.928 131.997 91.6008 126.187 99.8547L115.21 99.9894C118.626 94.993 122.07 90.0149 125.542 85.0614C132.995 74.5359 138.443 69.913 151.351 67.6781Z" fill="#244738"/>
    </g>
    <defs>
      <clipPath id="clip0_1_20">
        <rect fill="white" height="252" width="237.216"/>
      </clipPath>
    </defs>
  </g>
</svg>
